<svg width="13" height="13" viewBox="0 0 13 13" fill="none" xmlns="http://www.w3.org/2000/svg">
<path d="M2.23987 2.46777C3.38049 1.32715 4.75549 0.756836 6.36487 0.756836C7.97424 0.756836 9.34143 1.32715 10.4664 2.46777C11.6071 3.59277 12.1774 4.95996 12.1774 6.56934C12.1774 8.17871 11.6071 9.55371 10.4664 10.6943C9.34143 11.8193 7.97424 12.3818 6.36487 12.3818C4.75549 12.3818 3.38049 11.8193 2.23987 10.6943C1.11487 9.55371 0.552368 8.17871 0.552368 6.56934C0.552368 4.95996 1.11487 3.59277 2.23987 2.46777ZM9.22424 8.09277L7.67737 6.56934L9.22424 5.0459C9.34924 4.90527 9.34924 4.77246 9.22424 4.64746L8.28674 3.70996C8.16174 3.58496 8.02893 3.58496 7.88831 3.70996L6.36487 5.25684L4.84143 3.70996C4.70081 3.58496 4.56799 3.58496 4.44299 3.70996L3.50549 4.64746C3.38049 4.77246 3.38049 4.90527 3.50549 5.0459L5.05237 6.56934L3.50549 8.09277C3.38049 8.2334 3.38049 8.36621 3.50549 8.49121L4.44299 9.42871C4.56799 9.55371 4.70081 9.55371 4.84143 9.42871L6.36487 7.88184L7.88831 9.42871C8.02893 9.55371 8.16174 9.55371 8.28674 9.42871L9.22424 8.49121C9.34924 8.36621 9.34924 8.2334 9.22424 8.09277Z" fill="#F1352B"/>
</svg>
