<svg width="13" height="13" viewBox="0 0 13 13" fill="none" xmlns="http://www.w3.org/2000/svg">
<path d="M10.4664 2.66797C11.6071 3.79297 12.1774 5.16016 12.1774 6.76953C12.1774 8.37891 11.6071 9.75391 10.4664 10.8945C9.34143 12.0195 7.97424 12.582 6.36487 12.582C4.75549 12.582 3.38049 12.0195 2.23987 10.8945C1.11487 9.75391 0.552368 8.37891 0.552368 6.76953C0.552368 5.16016 1.11487 3.79297 2.23987 2.66797C3.38049 1.52734 4.75549 0.957031 6.36487 0.957031C7.97424 0.957031 9.34143 1.52734 10.4664 2.66797ZM5.68518 9.83984L9.99768 5.52734C10.1852 5.35547 10.1852 5.18359 9.99768 5.01172L9.48206 4.47266C9.29456 4.30078 9.11487 4.30078 8.94299 4.47266L5.42737 7.98828L3.78674 6.34766C3.61487 6.17578 3.43518 6.17578 3.24768 6.34766L2.73206 6.88672C2.54456 7.05859 2.54456 7.23047 2.73206 7.40234L5.16956 9.83984C5.34143 10.0273 5.51331 10.0273 5.68518 9.83984Z" fill="#1ABA1A"/>
</svg>
