<svg width="13" height="13" viewBox="0 0 13 13" fill="none" xmlns="http://www.w3.org/2000/svg">
<path d="M6.45498 3.58545C8.17764 3.58545 9.59951 5.00732 9.59951 6.72998C9.59951 8.47998 8.17764 9.87451 6.45498 9.87451C4.70498 9.87451 3.31045 8.47998 3.31045 6.72998C3.31045 5.00732 4.70498 3.58545 6.45498 3.58545ZM6.45498 8.78076C7.57607 8.78076 8.47842 7.87842 8.47842 6.72998C8.47842 5.60889 7.57607 4.70654 6.45498 4.70654C5.30654 4.70654 4.4042 5.60889 4.4042 6.72998C4.4042 7.87842 5.33389 8.78076 6.45498 8.78076ZM10.4472 3.47607C10.4472 3.88623 10.119 4.21436 9.70889 4.21436C9.29873 4.21436 8.97061 3.88623 8.97061 3.47607C8.97061 3.06592 9.29873 2.73779 9.70889 2.73779C10.119 2.73779 10.4472 3.06592 10.4472 3.47607ZM12.5253 4.21436C12.58 5.22607 12.58 8.26123 12.5253 9.27295C12.4706 10.2573 12.2519 11.105 11.5409 11.8433C10.83 12.5542 9.95498 12.7729 8.97061 12.8276C7.95889 12.8823 4.92373 12.8823 3.91201 12.8276C2.92764 12.7729 2.07998 12.5542 1.3417 11.8433C0.630762 11.105 0.412012 10.2573 0.357324 9.27295C0.302637 8.26123 0.302637 5.22607 0.357324 4.21436C0.412012 3.22998 0.630762 2.35498 1.3417 1.64404C2.07998 0.933105 2.92764 0.714355 3.91201 0.659668C4.92373 0.60498 7.95889 0.60498 8.97061 0.659668C9.95498 0.714355 10.83 0.933105 11.5409 1.64404C12.2519 2.35498 12.4706 3.22998 12.5253 4.21436ZM11.2128 10.3394C11.5409 9.54639 11.4589 7.63232 11.4589 6.72998C11.4589 5.85498 11.5409 3.94092 11.2128 3.12061C10.994 2.60107 10.5839 2.16357 10.0644 1.97217C9.24404 1.64404 7.32998 1.72607 6.45498 1.72607C5.55264 1.72607 3.63857 1.64404 2.84561 1.97217C2.29873 2.19092 1.88857 2.60107 1.66982 3.12061C1.3417 3.94092 1.42373 5.85498 1.42373 6.72998C1.42373 7.63232 1.3417 9.54639 1.66982 10.3394C1.88857 10.8862 2.29873 11.2964 2.84561 11.5151C3.63857 11.8433 5.55264 11.7612 6.45498 11.7612C7.32998 11.7612 9.24404 11.8433 10.0644 11.5151C10.5839 11.2964 11.0214 10.8862 11.2128 10.3394Z" fill="black"/>
</svg>
