<svg width="15" height="15" viewBox="0 0 15 15" fill="none" xmlns="http://www.w3.org/2000/svg">
<path d="M14.02 7.72998C14.02 11.4761 10.9849 14.5112 7.23877 14.5112C6.52784 14.5112 5.84424 14.4292 5.21534 14.2104C5.48877 13.7729 5.89893 13.0347 6.06299 12.4331C6.14502 12.1323 6.47315 10.8198 6.47315 10.8198C6.6919 11.2573 7.34815 11.6128 8.03174 11.6128C10.0825 11.6128 11.5591 9.72607 11.5591 7.40186C11.5591 5.15967 9.72705 3.46436 7.37549 3.46436C4.44971 3.46436 2.89112 5.43311 2.89112 7.56592C2.89112 8.57764 3.41065 9.80811 4.2583 10.2183C4.39502 10.2729 4.47705 10.2456 4.5044 10.1089C4.5044 10.0269 4.64112 9.56201 4.6958 9.34326C4.6958 9.28857 4.6958 9.20654 4.64112 9.15186C4.36768 8.82373 4.14893 8.19482 4.14893 7.59326C4.14893 6.1167 5.27002 4.66748 7.21143 4.66748C8.85205 4.66748 10.0278 5.78857 10.0278 7.4292C10.0278 9.26123 9.09815 10.519 7.89502 10.519C7.23877 10.519 6.74659 9.97217 6.8833 9.31592C7.07471 8.49561 7.45752 7.62061 7.45752 7.04639C7.45752 6.52686 7.18409 6.08936 6.60987 6.08936C5.92627 6.08936 5.3794 6.80029 5.3794 7.72998C5.3794 8.33154 5.5708 8.7417 5.5708 8.7417C5.5708 8.7417 4.91455 11.5854 4.77784 12.105C4.64112 12.7065 4.6958 13.5269 4.75049 14.0464C2.23487 13.062 0.457523 10.6284 0.457523 7.72998C0.457523 3.98389 3.49268 0.94873 7.23877 0.94873C10.9849 0.94873 14.02 3.98389 14.02 7.72998Z" fill="black"/>
</svg>
