<svg width="13" height="13" viewBox="0 0 13 13" fill="none" xmlns="http://www.w3.org/2000/svg">
<path d="M12.1055 4.82751C12.3424 4.82751 12.543 4.91866 12.707 5.10095C12.8893 5.26501 12.9805 5.46554 12.9805 5.70251V6.57751C12.9805 6.81449 12.8893 7.02413 12.707 7.20642C12.543 7.37048 12.3424 7.45251 12.1055 7.45251H8.16797V11.39C8.16797 11.627 8.07682 11.8275 7.89453 11.9916C7.73047 12.1739 7.52995 12.265 7.29297 12.265H6.41797C6.18099 12.265 5.97135 12.1739 5.78906 11.9916C5.625 11.8275 5.54297 11.627 5.54297 11.39V7.45251H1.60547C1.36849 7.45251 1.15885 7.37048 0.976562 7.20642C0.8125 7.02413 0.730469 6.81449 0.730469 6.57751V5.70251C0.730469 5.46554 0.8125 5.26501 0.976562 5.10095C1.15885 4.91866 1.36849 4.82751 1.60547 4.82751H5.54297V0.890015C5.54297 0.653035 5.625 0.452515 5.78906 0.288452C5.97135 0.10616 6.18099 0.0150146 6.41797 0.0150146H7.29297C7.52995 0.0150146 7.73047 0.10616 7.89453 0.288452C8.07682 0.452515 8.16797 0.653035 8.16797 0.890015V4.82751H12.1055Z" fill="black"/>
</svg>
