<svg width="15" height="15" viewBox="0 0 15 15" fill="none" xmlns="http://www.w3.org/2000/svg">
<path d="M13.9471 12.6328C14.0747 12.7604 14.1385 12.9153 14.1385 13.0976C14.1385 13.2799 14.0747 13.4348 13.9471 13.5624L13.1815 14.3281C13.0539 14.4557 12.899 14.5195 12.7167 14.5195C12.5344 14.5195 12.3794 14.4557 12.2518 14.3281L9.51745 11.5937C9.38985 11.4661 9.32604 11.3111 9.32604 11.1288V10.6913C8.30521 11.4934 7.13854 11.8945 5.82604 11.8945C4.25834 11.8945 2.91849 11.3385 1.80651 10.2265C0.694533 9.11452 0.138544 7.77468 0.138544 6.20697C0.138544 4.63926 0.694533 3.29942 1.80651 2.18744C2.91849 1.07546 4.25834 0.51947 5.82604 0.51947C7.39375 0.51947 8.7336 1.07546 9.84557 2.18744C10.9576 3.29942 11.5135 4.63926 11.5135 6.20697C11.5135 7.51947 11.1125 8.68614 10.3104 9.70697H10.7479C10.9302 9.70697 11.0852 9.77077 11.2128 9.89838L13.9471 12.6328ZM3.33776 8.69525C4.03047 9.36973 4.8599 9.70697 5.82604 9.70697C6.79219 9.70697 7.6125 9.36973 8.28698 8.69525C8.97969 8.00254 9.32604 7.17312 9.32604 6.20697C9.32604 5.24082 8.97969 4.42051 8.28698 3.74603C7.6125 3.05332 6.79219 2.70697 5.82604 2.70697C4.8599 2.70697 4.03047 3.05332 3.33776 3.74603C2.66328 4.42051 2.32604 5.24082 2.32604 6.20697C2.32604 7.17312 2.66328 8.00254 3.33776 8.69525Z" fill="black"/>
</svg>
