<svg width="16" height="15" viewBox="0 0 16 15" fill="none" xmlns="http://www.w3.org/2000/svg">
<path d="M4.26953 0.8125C3.50781 0.8125 2.80469 1.00293 2.16016 1.38379C1.51562 1.76465 1.00293 2.27734 0.62207 2.92188C0.241211 3.56641 0.0507812 4.26953 0.0507812 5.03125C0.0507812 5.67578 0.285156 6.34375 0.753906 7.03516C0.976562 7.375 1.20508 7.65039 1.43945 7.86133L7.92578 14.3652L14.623 7.65039C14.7988 7.46289 14.9629 7.26367 15.1152 7.05273C15.3145 6.75977 15.4727 6.46094 15.5898 6.15625C15.7305 5.76953 15.8008 5.39453 15.8008 5.03125C15.8008 4.26953 15.6104 3.56641 15.2295 2.92188C14.8486 2.27734 14.3359 1.76465 13.6914 1.38379C13.0469 1.00293 12.3438 0.8125 11.582 0.8125C10.2227 0.8125 9.00391 1.36328 7.92578 2.46484C6.84766 1.36328 5.62891 0.8125 4.26953 0.8125ZM4.26953 1.9375C4.65625 1.9375 5.06055 2.02539 5.48242 2.20117C5.82227 2.33008 6.16797 2.51172 6.51953 2.74609C6.76562 2.92188 7.00586 3.10938 7.24023 3.30859L7.50391 3.57227L7.92578 4.04688L8.34766 3.57227L8.61133 3.30859C8.8457 3.10938 9.08594 2.92188 9.33203 2.74609C9.68359 2.51172 10.0293 2.33008 10.3691 2.20117C10.791 2.02539 11.1953 1.9375 11.582 1.9375C12.1445 1.9375 12.6631 2.07812 13.1377 2.35938C13.6123 2.64062 13.9873 3.01855 14.2627 3.49316C14.5381 3.96777 14.6758 4.48047 14.6758 5.03125C14.6758 5.28906 14.582 5.59375 14.3945 5.94531C14.2656 6.20312 14.1016 6.4668 13.9023 6.73633L13.6211 7.07031L7.92578 12.7656L2.23047 7.07031L2.05469 6.89453C1.92578 6.73047 1.80273 6.56641 1.68555 6.40234C1.5332 6.17969 1.41602 5.95703 1.33398 5.73438C1.22852 5.47656 1.17578 5.24219 1.17578 5.03125C1.17578 4.48047 1.31348 3.96777 1.58887 3.49316C1.86426 3.01855 2.23926 2.64062 2.71387 2.35938C3.18848 2.07812 3.70703 1.9375 4.26953 1.9375Z" fill="black"/>
</svg>
